<?xml version="1.0" standalone="no"?>
<!DOCTYPE svg PUBLIC "-//W3C//DTD SVG 20010904//EN"
 "http://www.w3.org/TR/2001/REC-SVG-20010904/DTD/svg10.dtd">
<svg version="1.0" xmlns="http://www.w3.org/2000/svg"
 width="200.000000pt" height="200.000000pt" viewBox="0 0 200.000000 200.000000"
 preserveAspectRatio="xMidYMid meet">

<g transform="translate(0.000000,200.000000) scale(0.100000,-0.100000)"
fill="#000000" stroke="none">
<path d="M0 1000 l0 -1000 1000 0 1000 0 0 1000 0 1000 -1000 0 -1000 0 0
-1000z m906 324 l94 -56 94 56 c52 31 97 56 100 56 3 0 6 -65 6 -145 l0 -145
-25 0 c-24 0 -24 1 -27 100 l-3 100 -145 -86 c-80 -47 -157 -92 -172 -100
l-28 -15 0 146 c0 80 3 145 6 145 3 0 48 -25 100 -56z m-542 -521 l54 -108 53
108 c52 103 55 107 86 107 l33 0 0 -145 0 -145 -25 0 -25 0 0 103 -1 102 -55
-102 c-31 -57 -61 -103 -67 -103 -7 0 -34 44 -62 97 l-50 97 -3 -97 -3 -97
-29 0 -30 0 0 145 0 145 35 0 c34 0 36 -2 89 -107z m626 62 c0 -22 4 -25 35
-25 31 0 35 -3 35 -26 0 -20 -5 -25 -22 -24 -46 4 -48 2 -48 -59 l0 -60 33 -3
c24 -2 33 -8 35 -25 3 -21 -1 -23 -39 -23 -65 0 -79 19 -79 105 0 68 -1 72
-22 71 -17 -1 -24 5 -26 22 -3 18 1 22 22 22 21 0 26 5 26 25 0 20 5 25 25 25
20 0 25 -5 25 -25z m700 0 c0 -22 4 -25 36 -25 31 0 35 -3 32 -22 -2 -18 -11
-24 -35 -26 l-33 -3 0 -59 c0 -57 1 -59 28 -62 19 -2 28 -9 30 -25 3 -21 -1
-23 -42 -23 -61 0 -76 22 -76 111 0 63 -1 66 -22 65 -17 -1 -24 5 -26 22 -3
18 1 22 22 22 21 0 26 5 26 25 0 21 5 25 30 25 25 0 30 -4 30 -25z m-428 -36
c23 -12 28 -36 31 -132 2 -74 1 -77 -20 -77 -13 0 -23 4 -23 9 0 5 -14 3 -31
-6 -37 -18 -98 -11 -116 14 -7 9 -13 29 -13 45 0 34 27 53 98 69 41 8 52 15
50 27 -5 27 -74 29 -90 3 -15 -25 -46 -28 -55 -6 -7 21 23 53 61 64 32 10 79
5 108 -10z m281 -20 c25 -27 27 -36 27 -109 0 -78 -1 -80 -24 -80 -23 0 -24 4
-28 76 -3 60 -7 79 -23 90 -25 18 -55 18 -83 -2 -19 -13 -22 -24 -22 -90 l0
-74 -30 0 -30 0 0 105 c0 88 3 107 16 112 9 3 24 1 34 -5 10 -6 21 -7 26 -2
30 28 101 18 137 -21z m-853 -49 c0 -85 9 -100 61 -100 44 0 59 27 59 107 0
71 1 73 25 73 l25 0 0 -110 0 -110 -37 0 c-21 1 -54 -2 -74 -6 -82 -14 -119
37 -119 164 l0 62 30 0 30 0 0 -80z"/>
<path d="M850 1235 l0 -56 39 23 c21 13 40 27 42 31 2 5 -15 20 -38 34 l-43
25 0 -57z"/>
<path d="M1205 715 c-5 -2 -22 -6 -37 -9 -19 -4 -28 -13 -28 -26 0 -16 7 -20
38 -20 41 0 62 14 62 42 0 17 -11 21 -35 13z"/>
</g>
</svg>
